#!OML:ASF F:\VICON\USERDATA\INSTALL\SteveWalk\SteveWalk.ASF
:FULLY-SPECIFIED
:DEGREES

299
root 0.160683 15.8009 19.2669 19.8283 -3.56909 0.418321
lowerback -17.4589 2.04547 -3.91432
upperback -5.48457 3.39477 -0.749877
thorax 3.7098 1.6852 2.10207
lowerneck -6.2686 -1.10313 -1.14636
upperneck 7.2338 -1.5085 1.69196
head 3.47037 -0.709462 0.682049
rclavicle -2.9709e-014 -1.19271e-015
rhumerus -13.6424 4.40127 -81.0777
rradius 56.879
rwrist -17.5454
rhand -18.599 -36.2615
rfingers 7.12502
rthumb 7.69223 -66.1016
lclavicle -2.9709e-014 -1.19271e-015
lhumerus -74.7046 28.8543 31.1499
lradius 8.54092
lwrist -52.8125
lhand -12.9583 -13.0209
lfingers 7.12502
lthumb 13.1334 16.5455
rfemur -2.13382 -1.55307 17.615
rtibia 31.9537
rfoot -9.19303 16.8046
rtoes -11.9744
lfemur -52.7319 2.54178 -22.535
ltibia 27.3855
lfoot -1.10515 -1.68174
ltoes -15.8629
300
root 0.178557 15.7869 19.5175 19.4701 -2.34952 0.949367
lowerback -17.1567 1.66807 -4.30503
upperback -5.36251 2.96767 -0.974948
thorax 3.69695 1.47317 1.99185
lowerneck -6.25799 -1.23705 -1.34325
upperneck 7.10838 -1.71229 2.23376
head 3.43869 -0.794093 0.884915
rclavicle 2.9973e-015 -1.59028e-015
rhumerus -14.7786 3.88779 -81.1918
rradius 57.7542
rwrist -17.3871
rhand -18.2061 -36.2542
rfingers 7.12502
rthumb 8.07146 -66.0801
lclavicle 2.9973e-015 -1.59028e-015
lhumerus -74.2205 29.2545 30.9564
lradius 8.19903
lwrist -53.0397
lhand -12.7691 -11.9393
lfingers 7.12502
lthumb 13.3158 17.6153
rfemur -2.38992 -2.15704 17.4606
rtibia 34.4783
rfoot -5.49948 16.6974
rtoes -10.4782
lfemur -52.6826 1.90969 -23.2967
ltibia 29.5831
lfoot -1.75453 -2.69741
ltoes -17.7638
301
root 0.209358 15.7707 19.7629 19.0722 -0.737826 1.3139
lowerback -16.6361 1.21308 -4.29312
upperback -5.33559 2.35181 -1.1396
thorax 3.49566 1.17345 1.67644
lowerneck -6.21388 -1.27741 -1.54812
upperneck 7.10468 -1.78585 2.70285
head 3.44097 -0.81738 1.07267
rclavicle -1.38932e-014 -1.88845e-014
rhumerus -16.3244 4.30691 -81.5291
rradius 58.3177
rwrist -16.4069
rhand -19.5235 -33.3028
rfingers 7.12502
rthumb 6.79984 -63.1736
lclavicle -1.38932e-014 -1.88845e-014
lhumerus -74.0023 29.4969 30.6216
lradius 8.08933
lwrist -53.1953
lhand -12.3587 -11.149
lfingers 7.12502
lthumb 13.7114 18.3793
rfemur -2.6744 -3.37892 17.4617
rtibia 37.1575
rfoot -1.64573 16.2708
rtoes -9.32558
lfemur -52.5394 0.882681 -23.7383
ltibia 31.6668
lfoot -3.04268 -3.89023
ltoes -15.398
302
root 0.223871 15.762 19.9998 19.1047 -0.342887 1.7384
lowerback -16.5326 1.03903 -4.78847
upperback -5.4377 2.20323 -1.3428
thorax 3.32802 1.10621 1.70818
lowerneck -6.0917 -1.33531 -1.58649
upperneck 7.06556 -1.87974 2.94156
head 3.41075 -0.856397 1.15388
rclavicle 1.32347e-014 1.23246e-014
rhumerus -17.8443 4.22245 -81.7609
rradius 59.059
rwrist -16.4997
rhand -19.7541 -32.8741
rfingers 7.12502
rthumb 6.57717 -62.7519
lclavicle 1.32347e-014 1.23246e-014
lhumerus -73.997 29.5793 30.205
lradius 8.37295
lwrist -53.0132
lhand -11.7193 -10.378
lfingers 7.12502
lthumb 14.3274 19.1076
rfemur -3.78495 -3.74173 17.0025
rtibia 39.9419
rfoot 1.97453 15.7239
rtoes -10.3453
lfemur -52.6943 0.582532 -24.3189
ltibia 33.5476
lfoot -4.33745 -4.90497
ltoes -13.3913
303
root 0.230863 15.7651 20.2367 19.1016 -0.409153 2.33904
lowerback -16.5491 0.919481 -5.63876
upperback -5.42512 2.1942 -1.57062
thorax 3.32277 1.10336 1.94483
lowerneck -6.04188 -1.39158 -1.53032
upperneck 6.98957 -1.97021 3.07825
head 3.3787 -0.895024 1.18442
rclavicle -2.16365e-014 2.42517e-014
rhumerus -19.0571 4.16405 -81.9767
rradius 59.347
rwrist -16.2439
rhand -19.7552 -31.8382
rfingers 7.12502
rthumb 6.57611 -61.7161
lclavicle -2.16365e-014 2.42517e-014
lhumerus -73.9093 29.9506 29.8187
lradius 8.53079
lwrist -52.8092
lhand -11.4412 -9.78012
lfingers 7.12502
lthumb 14.5955 19.6863
rfemur -5.15198 -3.65469 16.2384
rtibia 42.8667
rfoot 5.58838 15.4501
rtoes -10.4237
lfemur -52.546 0.581096 -25.1517
ltibia 35.0617
lfoot -5.47495 -5.36454
ltoes -13.6445
304
root 0.23164 15.7801 20.4752 19.005 -0.471866 2.20712
lowerback -16.5078 0.912891 -5.83114
upperback -5.36492 2.2157 -1.56655
thorax 3.35447 1.11263 2.06098
lowerneck -6.31667 -1.38708 -1.3607
upperneck 7.12165 -1.98439 3.11216
head 3.47616 -0.892846 1.1649
rclavicle -1.87292e-014 1.51076e-014
rhumerus -20.1193 4.57288 -82.3736
rradius 59.6244
rwrist -17.7288
rhand -21.7493 -30.3666
rfingers 7.12502
rthumb 4.65082 -60.2955
lclavicle -1.87292e-014 1.51076e-014
lhumerus -73.5992 30.6848 29.4862
lradius 8.3071
lwrist -52.6999
lhand -11.6186 -9.3128
lfingers 7.12502
lthumb 14.4246 20.1659
rfemur -6.66327 -3.21517 16.3371
rtibia 45.9184
rfoot 9.12231 15.5986
rtoes -9.27263
lfemur -52.1444 0.907704 -25.181
ltibia 36.1481
lfoot -6.26751 -5.49418
ltoes -13.6311
305
root 0.252336 15.8085 20.7083 18.7707 -0.345024 2.27372
lowerback -16.123 0.880351 -5.8559
upperback -5.39404 2.15065 -1.64979
thorax 3.12613 1.08736 1.96356
lowerneck -6.17684 -1.34073 -1.28888
upperneck 7.03686 -1.93039 3.14575
head 3.41756 -0.864481 1.16576
rclavicle 1.90647e-014 -5.1684e-015
rhumerus -21.4898 5.01463 -82.7918
rradius 60.5341
rwrist -20.0964
rhand -23.012 -33.7707
rfingers 7.12502
rthumb 3.43152 -63.7229
lclavicle 1.90647e-014 -5.1684e-015
lhumerus -73.3883 31.2877 29.1086
lradius 8.11412
lwrist -52.5307
lhand -11.5765 -8.81728
lfingers 7.12502
lthumb 14.4651 20.6586
rfemur -8.0295 -3.37443 16.1113
rtibia 48.8965
rfoot 12.712 16.2444
rtoes -9.14141
lfemur -51.3551 1.10519 -25.5261
ltibia 36.8793
lfoot -7.04193 -5.85126
ltoes -12.9255
306
root 0.251935 15.8468 20.9311 18.3677 -0.781627 2.98833
lowerback -15.4999 0.826688 -6.87612
upperback -5.39064 2.19115 -1.83407
thorax 2.75575 1.12276 2.32971
lowerneck -5.80892 -1.28317 -1.40084
upperneck 6.81003 -1.84488 3.21828
head 3.26873 -0.826968 1.21309
rclavicle -3.2054e-015 1.19271e-015
rhumerus -22.9183 5.47267 -83.2348
rradius 60.7422
rwrist -20.6158
rhand -23.5477 -33.0812
rfingers 7.12502
rthumb 2.91417 -63.041
lclavicle -3.2054e-015 1.19271e-015
lhumerus -73.5531 31.7036 28.5878
lradius 8.49288
lwrist -52.2106
lhand -11.1812 -8.99695
lfingers 7.12502
lthumb 14.8459 20.4512
rfemur -9.40128 -3.06113 15.2083
rtibia 51.7784
rfoot 16.5415 16.1258
rtoes -11.0654
lfemur -50.1941 1.58673 -26.5725
ltibia 37.3063
lfoot -7.9654 -6.04822
ltoes -12.5064
307
root 0.257137 15.878 21.15 18.0686 -1.12963 3.43294
lowerback -15.0754 0.774783 -7.47125
upperback -5.34605 2.17771 -1.97126
thorax 2.55535 1.12447 2.50388
lowerneck -5.71476 -1.24181 -1.44636
upperneck 6.82173 -1.78711 3.22872
head 3.25395 -0.799878 1.22749
rclavicle 1.90523e-014 -1.90833e-014
rhumerus -23.9966 5.7876 -83.8095
rradius 60.7289
rwrist -21.1711
rhand -23.2995 -32.6291
rfingers 7.12502
rthumb 3.15383 -62.5855
lclavicle 1.90523e-014 -1.90833e-014
lhumerus -73.8205 32.2277 27.9336
lradius 8.98753
lwrist -51.9763
lhand -10.9881 -9.92175
lfingers 7.12502
lthumb 15.032 19.5126
rfemur -10.7694 -2.82087 14.613
rtibia 54.4775
rfoot 19.9285 15.6
rtoes -13.1482
lfemur -49.0957 2.02532 -27.2874
ltibia 37.5213
lfoot -8.7682 -6.17692
ltoes -10.8448
308
root 0.27982 15.9103 21.3776 17.9276 -1.26962 3.67742
lowerback -15.0651 0.70935 -7.54275
upperback -5.25386 2.11201 -2.13018
thorax 2.65728 1.08491 2.36742
lowerneck -5.72776 -1.23117 -1.36799
upperneck 6.83668 -1.77649 3.18218
head 3.25934 -0.794135 1.19875
rclavicle -1.47535e-014 2.5842e-014
rhumerus -24.8387 6.07332 -84.516
rradius 60.3003
rwrist -21.7365
rhand -24.3456 -37.1243
rfingers 7.12502
rthumb 2.14363 -67.0933
lclavicle -1.47535e-014 2.5842e-014
lhumerus -73.8794 33.0534 27.2937
lradius 9.06565
lwrist -52.2614
lhand -11.1244 -10.6866
lfingers 7.12502
lthumb 14.9007 18.7575
rfemur -12.1776 -3.00816 14.16
rtibia 57.0188
rfoot 22.421 14.8589
rtoes -13.4298
lfemur -48.0413 2.23801 -27.7573
ltibia 37.609
lfoot -9.3454 -6.3929
ltoes -8.4133
309
root 0.304007 15.9473 21.6065 17.8237 -1.39095 3.8622
lowerback -15.1817 0.623247 -7.51791
upperback -5.11182 2.02027 -2.26943
thorax 2.88583 1.02651 2.19762
lowerneck -5.9308 -1.16888 -1.32924
upperneck 6.92152 -1.69901 3.20033
head 3.32546 -0.751697 1.20188
rclavicle -2.34877e-014 1.19271e-015
rhumerus -25.6464 6.56347 -85.3327
rradius 59.7988
rwrist -22.5414
rhand -23.1468 -31.379
rfingers 7.12502
rthumb 3.30134 -61.3332
lclavicle -2.34877e-014 1.19271e-015
lhumerus -73.984 34.0513 26.6211
lradius 9.23145
lwrist -52.7853
lhand -11.1412 -11.2308
lfingers 7.12502
lthumb 14.8844 18.2145
rfemur -13.6616 -3.36595 13.7794
rtibia 59.447
rfoot 23.9017 13.7533
rtoes -11.8046
lfemur -46.9547 2.37992 -28.1324
ltibia 37.6916
lfoot -10.0545 -6.35871
ltoes -8.20547
310
root 0.319778 15.9778 21.8211 17.6558 -1.60941 3.93596
lowerback -15.0715 0.561702 -7.52993
upperback -5.0475 1.93636 -2.34357
thorax 2.90491 0.981964 2.11062
lowerneck -6.04071 -1.04774 -1.25191
upperneck 7.1961 -1.55026 3.20054
head 3.43693 -0.672981 1.19708
rclavicle -1.25793e-014 2.38542e-015
rhumerus -26.5962 6.9387 -86.1697
rradius 59.3283
rwrist -23.2424
rhand -23.8271 -33.6475
rfingers 7.12502
rthumb 2.64438 -63.6108
lclavicle -1.25793e-014 2.38542e-015
lhumerus -74.2628 34.8957 25.8393
lradius 9.60589
lwrist -53.3362
lhand -11.1283 -11.8188
lfingers 7.12502
lthumb 14.8969 17.6255
rfemur -15.143 -3.557 13.6147
rtibia 61.8174
rfoot 24.4711 12.8477
rtoes -7.29167
lfemur -45.8442 2.55895 -28.3271
ltibia 37.754
lfoot -11.0505 -5.88287
ltoes -10.1486
311
root 0.337811 16.0034 22.0304 17.5355 -1.83013 4.09735
lowerback -14.9319 0.499145 -7.59939
upperback -5.09218 1.85067 -2.44954
thorax 2.79109 0.943705 2.01968
lowerneck -5.80061 -0.926216 -1.04833
upperneck 7.34668 -1.40225 3.0996
head 3.43472 -0.598851 1.13542
rclavicle -9.56651e-016 5.56597e-015
rhumerus -27.6343 6.9419 -86.9725
rradius 58.6668
rwrist -23.5165
rhand -23.937 -33.2258
rfingers 7.12502
rthumb 2.53822 -63.1905
lclavicle -9.56651e-016 5.56597e-015
lhumerus -74.5086 35.5861 25.0375
lradius 9.83534
lwrist -53.8841
lhand -11.2865 -12.5825
lfingers 7.12502
lthumb 14.7444 16.8731
rfemur -16.7103 -3.7389 13.3867
rtibia 64.1422
rfoot 21.4495 11.9911
rtoes -12.1978
lfemur -44.8255 2.60293 -28.5704
ltibia 37.8114
lfoot -12.0245 -5.25207
ltoes -11.3634
